<svg xmlns="http://www.w3.org/2000/svg" viewBox="0 0 32 32" aria-hidden="true">
  <path fill="#20b35a" d="M16 3.2A12.7 12.7 0 0 0 5.1 22.4L3.7 28.8l6.6-1.7A12.8 12.8 0 1 0 16 3.2Z"/>
  <path fill="#fff" d="M22.9 19.4c-.3-.2-1.9-.9-2.2-1s-.5-.2-.7.2-.8 1-1 1.2-.4.2-.7.1a10.1 10.1 0 0 1-3-1.8 11.2 11.2 0 0 1-2.1-2.6c-.2-.3 0-.5.1-.7l.5-.6c.2-.2.2-.4.3-.6s.1-.4 0-.6-.7-1.8-1-2.5c-.3-.7-.5-.6-.7-.6h-.6c-.2 0-.6.1-.9.4s-1.2 1.1-1.2 2.8 1.2 3.2 1.4 3.5 2.4 3.7 5.8 5.1c.8.3 1.5.5 2 .7.8.3 1.6.2 2.2.1.7-.1 1.9-.8 2.2-1.5s.3-1.4.2-1.5c-.1-.2-.3-.2-.6-.4Z"/>
</svg>
